<svg display="none" xmlns="http://www.w3.org/2000/svg">
  <symbol id="empty-state" viewBox="0 0 250 200">
    <g>
      <path d="M 144.50 150.21 C134.05,153.39 125.28,155.96 125.00,155.92 C124.72,155.87 120.90,154.71 116.50,153.34 C112.10,151.97 103.44,149.28 97.25,147.37 L 86.00 143.89 L 86.00 120.16 L 82.75 119.17 C80.96,118.62 78.26,117.91 76.75,117.57 C75.24,117.24 74.00,116.38 74.00,115.67 C74.00,114.95 76.76,111.10 80.13,107.09 L 86.25 99.82 L 80.96 94.46 C75.68,89.12 75.68,89.10 78.09,88.06 C81.82,86.44 110.22,79.01 112.72,79.01 C113.94,79.00 117.23,81.04 120.05,83.55 L 125.17 88.09 L 130.50 83.55 C133.42,81.05 136.83,79.00 138.08,79.00 C139.32,79.00 145.55,80.39 151.92,82.08 C167.78,86.30 173.57,87.69 173.82,89.75 C173.95,90.89 172.38,92.23 169.88,94.38 C169.58,94.63 169.27,94.89 168.95,95.17 L 163.91 99.52 L 169.95 106.70 C173.28,110.65 176.00,114.53 176.00,115.31 C176.00,116.20 173.75,117.37 170.03,118.41 L 164.06 120.09 L 163.78 132.26 L 163.50 144.43 ZM 114.50 150.29 C118.90,151.65 122.84,152.81 123.25,152.88 C123.66,152.95 124.00,146.93 124.00,139.50 C124.00,131.17 124.38,126.00 125.00,126.00 C125.62,126.00 126.00,130.98 126.00,138.94 C126.00,146.06 126.38,152.12 126.85,152.41 C127.61,152.88 131.42,151.81 154.50,144.67 L 161.50 142.50 L 161.78 131.75 C161.94,125.84 161.69,121.00 161.24,121.00 C160.78,121.00 155.93,122.19 150.45,123.64 C144.98,125.10 139.69,126.25 138.69,126.20 C137.69,126.15 135.90,124.85 134.70,123.31 C133.51,121.76 130.84,118.70 128.78,116.50 L 125.04 112.50 L 122.28 116.00 C120.77,117.93 117.95,121.20 116.01,123.27 L 112.50 127.04 L 101.50 124.04 C95.45,122.39 90.16,121.04 89.75,121.02 C89.34,121.01 89.00,125.71 89.00,131.46 C89.00,132.11 89.00,132.73 89.00,133.30 C88.98,138.10 88.97,140.47 90.11,141.97 C91.36,143.61 93.99,144.20 99.50,145.80 C103.35,146.91 110.10,148.94 114.50,150.29 ZM 124.70 109.36 C125.08,109.74 157.07,101.26 157.73,100.61 C157.98,100.35 155.11,99.23 151.35,98.12 C140.91,95.04 127.88,91.78 127.53,92.16 C127.35,92.35 126.95,94.30 126.64,96.50 C126.33,98.70 126.06,100.61 126.04,100.75 C126.02,100.89 125.55,101.00 125.00,101.00 C124.45,101.00 124.00,98.97 124.00,96.50 C124.00,94.03 123.57,92.00 123.04,92.00 C122.17,92.00 97.42,98.49 94.11,99.59 C93.34,99.84 92.96,100.29 93.25,100.58 C93.55,100.88 100.67,102.91 109.09,105.09 C117.50,107.27 124.53,109.19 124.70,109.36 ZM 94.50 119.89 C102.75,122.06 110.21,123.88 111.07,123.92 C112.67,124.00 113.98,122.71 119.73,115.38 L 122.96 111.26 L 105.26 106.51 L 87.55 101.75 L 84.18 105.63 C78.20,112.51 76.71,114.95 78.18,115.47 C78.91,115.73 86.25,117.72 94.50,119.89 ZM 133.05 117.87 C135.87,121.24 138.70,123.99 139.34,123.97 C142.09,123.92 172.43,115.20 172.70,114.39 C172.86,113.90 170.63,110.90 167.75,107.72 L 162.50 101.95 L 145.50 106.56 C136.15,109.10 128.37,111.30 128.21,111.46 C128.06,111.61 130.23,114.50 133.05,117.87 ZM 144.50 93.83 C152.75,96.03 160.12,97.87 160.89,97.92 C162.89,98.04 171.31,90.05 169.76,89.50 C166.26,88.28 138.83,81.00 137.71,81.00 C136.28,81.00 128.36,88.70 129.06,89.39 C129.30,89.63 136.25,91.62 144.50,93.83 ZM 84.14 94.08 C86.54,96.19 88.99,97.93 89.58,97.96 C90.17,97.98 96.41,96.43 103.43,94.50 C110.45,92.57 116.74,91.00 117.41,91.00 C118.07,91.00 119.44,90.40 120.44,89.67 C122.12,88.44 121.93,88.07 117.70,84.61 L 113.15 80.88 L 97.32 85.04 C88.62,87.33 81.11,89.44 80.64,89.73 C80.17,90.02 81.74,91.98 84.14,94.08 ZM 126.00 120.50 C126.00,121.88 125.55,123.00 125.00,123.00 C124.45,123.00 124.00,121.88 124.00,120.50 C124.00,119.12 124.45,118.00 125.00,118.00 C125.55,118.00 126.00,119.12 126.00,120.50 Z" fill="currentColor"/>
      <path d="M 137.69 63.91 C136.49,65.11 134.00,65.39 134.00,64.33 C134.00,63.96 134.74,62.83 135.65,61.83 C137.20,60.12 137.19,59.86 135.49,57.99 C133.13,55.38 134.38,54.13 136.99,56.49 C138.93,58.25 139.07,58.25 141.01,56.49 C143.58,54.16 144.72,55.28 143.02,58.47 C141.94,60.48 141.93,61.21 142.99,62.49 C144.75,64.61 143.66,65.42 140.98,63.99 C139.39,63.14 138.48,63.12 137.69,63.91 ZM 102.76 71.84 C102.12,72.48 101.24,73.00 100.80,73.00 C99.63,73.00 99.82,70.58 101.09,69.31 C101.87,68.53 101.87,68.04 101.09,67.55 C100.49,67.18 100.00,66.22 100.00,65.41 C100.00,64.24 100.42,64.15 102.00,65.00 C103.42,65.76 104.58,65.76 106.00,65.00 C107.58,64.15 108.00,64.24 108.00,65.41 C108.00,66.22 107.56,67.15 107.02,67.49 C106.40,67.87 106.48,68.80 107.23,70.00 C108.73,72.40 107.57,73.72 105.48,71.98 C104.30,71.00 103.63,70.97 102.76,71.84 ZM 131.96 44.55 C130.42,46.41 127.58,46.41 126.04,44.55 C123.38,41.35 127.29,36.43 130.75,38.61 C132.97,40.01 133.51,42.67 131.96,44.55 ZM 155.61 139.96 C154.29,140.46 151.53,141.18 149.48,141.57 C143.73,142.65 145.51,139.89 151.57,138.32 C157.60,136.75 158.00,136.74 158.00,138.02 C158.00,138.59 156.92,139.46 155.61,139.96 ZM 159.42 71.39 C156.35,72.57 155.00,71.80 155.00,68.89 C155.00,66.60 156.50,65.71 159.01,66.50 C161.38,67.26 161.66,70.53 159.42,71.39 ZM 116.94 57.11 C115.26,60.26 112.00,59.40 112.00,55.80 C112.00,53.44 114.57,52.40 116.49,53.99 C117.58,54.90 117.70,55.70 116.94,57.11 ZM 157.74 134.00 C157.60,134.00 156.03,134.42 154.24,134.93 C151.75,135.65 151.00,135.55 151.00,134.54 C151.00,133.81 151.71,132.94 152.58,132.61 C155.02,131.67 158.00,131.89 158.00,133.00 C158.00,133.55 157.88,134.00 157.74,134.00 ZM 127.45 42.91 C127.82,43.51 128.51,44.00 129.00,44.00 C130.54,44.00 131.27,41.87 130.11,40.71 C128.73,39.33 126.42,41.25 127.45,42.91 Z" fill="currentColor"/>
      <path d="M 0.00 100.00 L 0.00 0.00 L 125.00 0.00 L 250.00 0.00 L 250.00 100.00 L 250.00 200.00 L 125.00 200.00 L 0.00 200.00 L 0.00 100.00 ZM 144.50 150.21 L 163.50 144.43 L 163.78 132.26 L 164.06 120.09 L 170.03 118.41 C173.75,117.37 176.00,116.20 176.00,115.31 C176.00,114.53 173.28,110.65 169.95,106.70 L 163.91 99.52 L 168.95 95.17 C176.88,88.34 177.63,88.91 151.92,82.08 C145.55,80.39 139.32,79.00 138.08,79.00 C136.83,79.00 133.42,81.05 130.50,83.55 L 125.17 88.09 L 120.05 83.55 C117.23,81.04 113.94,79.00 112.72,79.01 C110.22,79.01 81.82,86.44 78.09,88.06 C75.68,89.10 75.68,89.12 80.96,94.46 L 86.25 99.82 L 80.13 107.09 C76.76,111.10 74.00,114.95 74.00,115.67 C74.00,116.38 75.24,117.24 76.75,117.57 C78.26,117.91 80.96,118.62 82.75,119.17 L 86.00 120.16 L 86.00 132.02 L 86.00 143.89 L 97.25 147.37 C103.44,149.28 112.10,151.97 116.50,153.34 C120.90,154.71 124.72,155.87 125.00,155.92 C125.28,155.96 134.05,153.39 144.50,150.21 ZM 102.76 71.84 C103.63,70.97 104.30,71.00 105.48,71.98 C107.57,73.72 108.73,72.40 107.23,70.00 C106.48,68.80 106.40,67.87 107.02,67.49 C107.56,67.15 108.00,66.22 108.00,65.41 C108.00,64.24 107.58,64.15 106.00,65.00 C104.58,65.76 103.42,65.76 102.00,65.00 C100.42,64.15 100.00,64.24 100.00,65.41 C100.00,66.22 100.49,67.18 101.09,67.55 C101.87,68.04 101.87,68.53 101.09,69.31 C99.82,70.58 99.63,73.00 100.80,73.00 C101.24,73.00 102.12,72.48 102.76,71.84 ZM 159.42 71.39 C161.66,70.53 161.38,67.26 159.01,66.50 C156.50,65.71 155.00,66.60 155.00,68.89 C155.00,71.80 156.35,72.57 159.42,71.39 ZM 137.69 63.91 C138.48,63.12 139.39,63.14 140.98,63.99 C143.66,65.42 144.75,64.61 142.99,62.49 C141.93,61.21 141.94,60.48 143.02,58.47 C144.72,55.28 143.58,54.16 141.01,56.49 C139.07,58.25 138.93,58.25 136.99,56.49 C134.38,54.13 133.13,55.38 135.49,57.99 C137.19,59.86 137.20,60.12 135.65,61.83 C134.74,62.83 134.00,63.96 134.00,64.33 C134.00,65.39 136.49,65.11 137.69,63.91 ZM 116.94 57.11 C117.70,55.70 117.58,54.90 116.49,53.99 C114.57,52.40 112.00,53.44 112.00,55.80 C112.00,59.40 115.26,60.26 116.94,57.11 ZM 131.96 44.55 C133.51,42.67 132.97,40.01 130.75,38.61 C127.29,36.43 123.38,41.35 126.04,44.55 C127.58,46.41 130.42,46.41 131.96,44.55 ZM 114.50 150.29 C110.10,148.94 103.35,146.91 99.50,145.80 C88.36,142.57 89.00,143.44 89.00,131.46 C89.00,125.71 89.34,121.01 89.75,121.02 C90.16,121.04 95.45,122.39 101.50,124.04 L 112.50 127.04 L 116.01 123.27 C117.95,121.20 120.77,117.93 122.28,116.00 L 125.04 112.50 L 128.78 116.50 C130.84,118.70 133.51,121.76 134.70,123.31 C135.90,124.85 137.69,126.15 138.69,126.20 C139.69,126.25 144.98,125.10 150.45,123.64 C155.93,122.19 160.78,121.00 161.24,121.00 C161.69,121.00 161.94,125.84 161.78,131.75 L 161.50 142.50 L 154.50 144.67 C131.42,151.81 127.61,152.88 126.85,152.41 C126.38,152.12 126.00,146.06 126.00,138.94 C126.00,130.98 125.62,126.00 125.00,126.00 C124.38,126.00 124.00,131.17 124.00,139.50 C124.00,146.93 123.66,152.95 123.25,152.88 C122.84,152.81 118.90,151.65 114.50,150.29 ZM 155.61 139.96 C156.92,139.46 158.00,138.59 158.00,138.02 C158.00,136.74 157.60,136.75 151.57,138.32 C145.51,139.89 143.73,142.65 149.48,141.57 C151.53,141.18 154.29,140.46 155.61,139.96 ZM 157.74 134.00 C157.88,134.00 158.00,133.55 158.00,133.00 C158.00,131.89 155.02,131.67 152.58,132.61 C151.71,132.94 151.00,133.81 151.00,134.54 C151.00,135.55 151.75,135.65 154.24,134.93 C156.03,134.42 157.60,134.00 157.74,134.00 ZM 126.00 120.50 C126.00,119.12 125.55,118.00 125.00,118.00 C124.45,118.00 124.00,119.12 124.00,120.50 C124.00,121.88 124.45,123.00 125.00,123.00 C125.55,123.00 126.00,121.88 126.00,120.50 ZM 94.50 119.89 C86.25,117.72 78.91,115.73 78.18,115.47 C76.71,114.95 78.20,112.51 84.18,105.63 L 87.55 101.75 L 105.26 106.51 L 122.96 111.26 L 119.73 115.38 C113.98,122.71 112.67,124.00 111.07,123.92 C110.21,123.88 102.75,122.06 94.50,119.89 ZM 133.05 117.87 C130.23,114.50 128.06,111.61 128.21,111.46 C128.37,111.30 136.15,109.10 145.50,106.56 L 162.50 101.95 L 167.75 107.72 C170.63,110.90 172.86,113.90 172.70,114.39 C172.43,115.20 142.09,123.92 139.34,123.97 C138.70,123.99 135.87,121.24 133.05,117.87 ZM 124.70 109.36 C124.53,109.19 117.50,107.27 109.09,105.09 C100.67,102.91 93.55,100.88 93.25,100.58 C92.96,100.29 93.34,99.84 94.11,99.59 C97.42,98.49 122.17,92.00 123.04,92.00 C123.57,92.00 124.00,94.03 124.00,96.50 C124.00,98.97 124.45,101.00 125.00,101.00 C125.55,101.00 126.02,100.89 126.04,100.75 C126.06,100.61 126.33,98.70 126.64,96.50 C126.95,94.30 127.35,92.35 127.53,92.16 C127.88,91.78 140.91,95.04 151.35,98.12 C155.11,99.23 157.98,100.35 157.73,100.61 C157.07,101.26 125.08,109.74 124.70,109.36 ZM 84.14 94.08 C81.74,91.98 80.17,90.02 80.64,89.73 C81.11,89.44 88.62,87.33 97.32,85.04 L 113.15 80.88 L 117.70 84.61 C121.93,88.07 122.12,88.44 120.44,89.67 C119.44,90.40 118.07,91.00 117.41,91.00 C116.74,91.00 110.45,92.57 103.43,94.50 C96.41,96.43 90.17,97.98 89.58,97.96 C88.99,97.93 86.54,96.19 84.14,94.08 ZM 144.50 93.83 C136.25,91.62 129.30,89.63 129.06,89.39 C128.36,88.70 136.28,81.00 137.71,81.00 C138.83,81.00 166.26,88.28 169.76,89.50 C171.31,90.05 162.89,98.04 160.89,97.92 C160.12,97.87 152.75,96.03 144.50,93.83 ZM 127.45 42.91 C126.42,41.25 128.73,39.33 130.11,40.71 C131.27,41.87 130.54,44.00 129.00,44.00 C128.51,44.00 127.82,43.51 127.45,42.91 Z" fill="none"/>
    </g>
  </symbol>
</svg>
