<svg xmlns="http://www.w3.org/2000/svg">
  <symbol id="wrong-state" viewBox="0 0 250 200">
    <path d="M 81.00 138.25 C73.26,134.18 69.66,128.66 69.19,120.19 C68.87,114.35 69.19,112.80 71.71,108.02 C75.01,101.74 81.27,97.18 87.80,96.30 L 91.79 95.76 L 92.16 88.63 C92.79,76.04 100.51,64.56 112.00,59.11 C116.73,56.87 118.83,56.50 127.00,56.50 C135.31,56.50 137.19,56.84 142.03,59.22 C148.58,62.43 156.06,69.59 158.48,74.95 C160.14,78.64 160.41,78.79 165.87,79.18 C176.45,79.95 186.21,86.68 191.08,96.58 C193.07,100.63 193.50,103.02 193.50,110.07 C193.50,117.63 193.15,119.33 190.48,124.54 C188.43,128.55 185.87,131.65 182.48,134.21 C173.53,140.98 173.37,141.00 127.44,141.00 L 86.23 141.00 L 81.00 138.25 ZM 174.05 136.39 C184.97,131.34 191.43,121.54 191.39,110.07 C191.34,94.65 180.33,83.05 164.13,81.36 C158.37,80.75 158.13,80.61 156.39,76.75 C155.40,74.55 152.64,70.76 150.26,68.31 C137.67,55.35 116.79,55.21 104.00,68.00 C97.79,74.21 94.61,81.84 94.55,90.67 L 94.50 97.85 L 90.02 98.52 C83.98,99.42 78.63,102.30 75.65,106.24 C66.63,118.16 72.66,134.35 87.50,138.09 C89.15,138.51 108.28,138.77 130.00,138.67 C167.86,138.51 169.69,138.41 174.05,136.39 ZM 71.36 79.02 C71.46,75.07 72.25,73.98 73.53,76.05 C73.97,76.76 74.64,76.72 75.61,75.91 C76.40,75.25 77.33,74.99 77.67,75.33 C78.01,75.67 77.75,76.60 77.09,77.39 C76.28,78.36 76.24,79.03 76.95,79.47 C78.82,80.63 78.07,82.16 75.95,81.48 C74.83,81.13 73.31,81.33 72.58,81.93 C71.52,82.82 71.28,82.24 71.36,79.02 ZM 82.96 67.45 C81.90,66.17 81.96,65.61 83.34,64.24 C84.89,62.68 85.11,62.68 86.66,64.24 C88.04,65.61 88.10,66.17 87.04,67.45 C86.33,68.30 85.42,69.00 85.00,69.00 C84.58,69.00 83.67,68.30 82.96,67.45 ZM 165.00 66.33 C165.00,65.96 165.74,64.83 166.65,63.83 C168.20,62.12 168.19,61.86 166.49,59.99 C164.13,57.38 165.38,56.13 167.99,58.49 C169.93,60.25 170.07,60.25 172.01,58.49 C174.62,56.13 175.87,57.38 173.51,59.99 C171.75,61.93 171.75,62.07 173.51,64.01 C175.87,66.62 174.62,67.87 172.01,65.51 C170.14,63.81 169.88,63.80 168.17,65.35 C166.26,67.08 165.00,67.47 165.00,66.33 ZM 186.96 64.45 C185.90,63.17 185.96,62.61 187.34,61.24 C188.89,59.68 189.11,59.68 190.66,61.24 C192.04,62.61 192.10,63.17 191.04,64.45 C190.33,65.30 189.42,66.00 189.00,66.00 C188.58,66.00 187.67,65.30 186.96,64.45 ZM 155.57 49.43 C153.46,47.31 153.59,45.29 155.93,44.04 C159.91,41.90 163.35,45.85 160.37,49.14 C158.32,51.41 157.59,51.45 155.57,49.43 ZM 160.00 47.00 C160.00,45.67 159.33,45.00 158.00,45.00 C156.67,45.00 156.00,45.67 156.00,47.00 C156.00,48.33 156.67,49.00 158.00,49.00 C159.33,49.00 160.00,48.33 160.00,47.00 ZM 122.65 125.17 C120.46,122.74 120.55,117.72 122.83,115.65 C125.26,113.46 130.28,113.55 132.35,115.83 C134.54,118.26 134.45,123.28 132.17,125.35 C129.74,127.54 124.72,127.45 122.65,125.17 ZM 130.17 123.35 C132.54,121.20 132.48,119.74 129.94,117.45 C127.74,115.45 125.63,116.05 123.61,119.26 C122.84,120.47 123.06,121.40 124.45,122.94 C126.70,125.43 127.78,125.51 130.17,123.35 ZM 111.00 109.07 C111.00,108.56 112.34,107.10 113.98,105.82 L 116.95 103.49 L 113.98 101.49 C111.43,99.78 109.90,97.00 111.52,97.00 C112.84,97.00 120.00,102.39 120.00,103.38 C120.00,104.68 113.61,110.00 112.05,110.00 C111.47,110.00 111.00,109.58 111.00,109.07 ZM 138.25 107.14 C136.46,105.61 135.00,103.88 135.00,103.31 C135.00,101.92 143.00,96.67 143.84,97.51 C144.20,97.87 143.08,99.43 141.36,100.97 L 138.21 103.78 L 141.11 105.92 C142.70,107.10 144.00,108.50 144.00,109.03 C144.00,110.77 141.56,109.97 138.25,107.14 ZM 147.33 76.23 C145.15,72.71 143.03,70.72 140.12,69.43 C136.17,67.69 134.71,66.00 137.16,66.00 C140.16,66.00 147.14,71.35 149.06,75.12 C152.13,81.14 150.89,81.95 147.33,76.23 Z" fill="currentColor"/>
  </symbol>
</svg>
